<svg xmlns="http://www.w3.org/2000/svg" viewBox="0 0 410.22 518.27"><defs><style>.cls-1{fill:#fff;}</style></defs><g id="Layer_2" data-name="Layer 2"><g id="_Layer_" data-name="&lt;Layer&gt;"><path class="cls-1" d="M87.84,389.33c.63-.58,1.29-1.14,1.88-1.77A16.6,16.6,0,0,0,87.84,389.33Z"/><path class="cls-1" d="M363,299.1q-3.21-6.45-5.77-13.19a7.67,7.67,0,0,0,5-1.05,17.9,17.9,0,0,1-5.93-11.31,18.75,18.75,0,0,0,7.91-.75A37,37,0,0,0,352,259.86l7.16-1.54a12,12,0,0,1-6-13.2l3,.16-11.74-14.79a12.66,12.66,0,0,0,7.88-.44c-2.37-5-14.34-23.72-11.78-29-11.59,24.06-26.1,49.29-50.72,59.63-9.6,4-20.05,5.45-30.38,6.7-46.27,5.58-93.76,8.32-139-2.87-12.36-3.06-24.94-7.42-34-16.37-7-6.86-14.41-36.57-20.81-38-3-.69-10.25,25.14-11.25,27.58l4.58.4a31.79,31.79,0,0,1-9.45,19.21,22.24,22.24,0,0,0,5.64.57A18.39,18.39,0,0,1,50,270.3a5.34,5.34,0,0,1,3.31,1.24c-1.74,3.3-10.1,27.78,1.93,17.18-1,3.22-5.62,24.78-8.24,25.59l6.08-1.89a52.41,52.41,0,0,0-5.47,28.27A6.73,6.73,0,0,0,53,339.11a44.09,44.09,0,0,0-4.7,16.69H53a26.73,26.73,0,0,0-1,11.48l8.09-.86a33.36,33.36,0,0,0-.67,11.31l8.24.34c.06,2.16.13,4.32.19,6.48a12.17,12.17,0,0,0,11.35-7.18A79.67,79.67,0,0,1,76.14,396a30.28,30.28,0,0,0,11.7-6.62,16.6,16.6,0,0,1,1.88-1.77c-.59.63-1.25,1.19-1.88,1.77a18.23,18.23,0,0,0-5,12,25.83,25.83,0,0,0,21.74-3.56c-3,2.07-4.16,7-3.61,10.2,3.58-.67,7.24-3.27,10.79-3.56.09,4.51.08,9,.11,13.54a21.6,21.6,0,0,0,12.24-1.1c0,3.32,0,6.63-.07,9.95,2.79-1.2,6.34,1.81,5.6,4.76a12.26,12.26,0,0,0,8.36-2.43,8,8,0,0,0,4.78,8.29c9.95,4,9.49-4.5,16.76,7.86a35.68,35.68,0,0,0,9.39-8c.27,4.8,3.81,8.92,8,11.22s9.06,3.11,13.8,3.88c2.25.37,5.6-.25,5.26-2.51q7.16,2.37,14.47,4.22c.13-2.38.25-4.76.38-7.15a26.83,26.83,0,0,0,18.53,4.51l.33-8.23c3.43,4.11,10.8,3.86,13.93-.49,3.39-.16,6.76-.26,10.11-.65.4-13.47,13-10.88,23.09-10.81a35.23,35.23,0,0,1-6.15-13.83,30.7,30.7,0,0,0,14.88,1.32c-.25-1.84-.49-3.69-.74-5.53a14.6,14.6,0,0,0,9.67,2.86c-2-2.32-.64-6.31,2.06-7.8s6.05-1.05,9,0c-4.15-1.46,9.74-12.22,9.79-13.23.13-2.41-1.3-4.59-2.68-6.58a43.8,43.8,0,0,0,16.05,1.84,2.15,2.15,0,0,0,1.49-.51c1.52-1.64-3.09-4.47-1.33-5.84a27.06,27.06,0,0,0,7.81-2c.71-.29,1.52-.82,1.42-1.58a1.82,1.82,0,0,0-.82-1.08l-4.74-3.74,9.69-1a3.63,3.63,0,0,0,1.69-.47c1.7-1.17.34-3.8-1.09-5.29l8.31-3.73a13.65,13.65,0,0,1-4.95-12.28c-.16,1.19,6.66-1.77,7.38-2.57,3.34-3.7-2.52-14.47,4.91-14.63a15.14,15.14,0,0,1-2.54-11l5.46-.19-4.74-10,4.64-.38a24,24,0,0,1-2-14.12A4,4,0,0,0,363,299.1ZM335.5,240.16a37.66,37.66,0,0,1,4.47.65,37.21,37.21,0,0,1,4.3,1.37c1.2.44,2.08.78,2.08.78a6.64,6.64,0,0,1-1.92,1.34,8.06,8.06,0,0,1-10-2.3,7,7,0,0,1-1.14-2.05Zm-5.07,8.41a9.33,9.33,0,0,1,3,1.13c2.45,1.32,5,4.23,7,7.28,2,2.89,4,5.27,5.86,6.49a7.65,7.65,0,0,0,2.53,1.09,6.48,6.48,0,0,0,.8.14l.29.05-.26.13a3.66,3.66,0,0,1-.79.34,6.81,6.81,0,0,1-3.28.26,11.28,11.28,0,0,1-4.54-1.91,16.86,16.86,0,0,1-4.11-4.18c-2.19-3.27-3.47-6.2-4.91-8.08a13.11,13.11,0,0,0-1.9-2.14c-.53-.46-.86-.71-.86-.71A7,7,0,0,1,330.43,248.57ZM66.89,262.35a8.83,8.83,0,0,1,7.62-5.5,8.54,8.54,0,0,1,2.2.07,17,17,0,0,1-1.18,1.8,12.88,12.88,0,0,1-7.19,5.19,18.78,18.78,0,0,1-2.08.54A8.56,8.56,0,0,1,66.89,262.35Zm-8.34,30.17a35.1,35.1,0,0,0,2.71-3.77c2.14-3.24,4.28-8.1,7.4-13.41a37.71,37.71,0,0,1,5.37-7,23.78,23.78,0,0,1,5.86-4.43,16.2,16.2,0,0,1,4.64-1.62,10.19,10.19,0,0,1,1.31-.17l.45,0-.4.21c-.26.16-.66.32-1.13.62a21.43,21.43,0,0,0-3.66,2.75c-2.84,2.55-5.79,6.84-8.79,11.91s-6.31,9.86-9.43,12.6A22.5,22.5,0,0,1,59,293a16.5,16.5,0,0,1-1.57.81Zm-6.1,40.18,2.22-2.3a40.75,40.75,0,0,0,4.88-7,73.52,73.52,0,0,0,4.9-11.66c1.56-4.54,3-9.65,5-15a65.9,65.9,0,0,1,7.19-14.51,58,58,0,0,1,8.57-10.05,57.19,57.19,0,0,1,6.91-5.5c.86-.59,1.55-1,2-1.29l.71-.43-.6.58c-.4.37-1,.92-1.7,1.65a80.21,80.21,0,0,0-5.79,6.44,77,77,0,0,0-7.07,10.49,93.06,93.06,0,0,0-6.25,14.1c-1.91,5.2-3.67,10.29-5.65,14.82a56.81,56.81,0,0,1-6.46,11.52,35.3,35.3,0,0,1-6.21,6.37C53.41,332.09,52.45,332.7,52.45,332.7Zm7,17.61c-.88.73-1.65,1.18-2.13,1.54l-.76.52.64-.66c.4-.45,1.06-1,1.8-1.89a56.85,56.85,0,0,0,5.73-7.56,83,83,0,0,0,6.41-12.41c2.07-4.85,4-10.33,5.93-16.16S81,302.24,83,297.21a98.6,98.6,0,0,1,6.2-13,62.24,62.24,0,0,1,5.48-8c.7-.9,1.33-1.54,1.71-2l.61-.68-.46.79c-.29.53-.78,1.26-1.31,2.27a83.48,83.48,0,0,0-4.12,8.59c-1.56,3.7-3.13,8.21-4.73,13.28S83.12,309.13,81.16,315a115.82,115.82,0,0,1-6.72,16.34,64.78,64.78,0,0,1-8,12.14A45.47,45.47,0,0,1,59.5,350.31Zm12.12,14-1.65.83-1.26.48-1,.39.95-.55,1.16-.66,1.48-1.05a31.12,31.12,0,0,0,7.65-8.33,66.55,66.55,0,0,0,7-15.3c2-6,3.91-12.93,6-20.08s3.88-14,5.52-20.26,3-12,4.74-16.68a33.53,33.53,0,0,1,5.77-10.28,17.46,17.46,0,0,1,1.26-1.35,9.63,9.63,0,0,1,1-.92l.84-.72-.71.84a11.47,11.47,0,0,0-.82,1.05,16.51,16.51,0,0,0-1,1.49,35.51,35.51,0,0,0-4.28,10.54c-1.23,4.66-2,10.41-3.27,16.83S98,314,96,321.22a211.94,211.94,0,0,1-6.68,20.17,58.88,58.88,0,0,1-8.63,15.3A29.46,29.46,0,0,1,71.62,364.33ZM85.89,377.6a31.78,31.78,0,0,0-1.33,3.1l-.38,1.13s.07-.41.21-1.17a26.39,26.39,0,0,1,.88-3.31A60.83,60.83,0,0,1,90.81,366a92.36,92.36,0,0,0,7.84-16.42,126.55,126.55,0,0,0,5.42-21.57c2.61-15.66,3.22-30.2,4.39-40.74a108,108,0,0,1,2-12.4c.66-2.89,1.16-4.45,1.16-4.45s-.24,1.62-.51,4.55-.49,7.18-.52,12.43c-.11,10.48.36,25.19-2.32,41.32A99.54,99.54,0,0,1,102,350.93a78.87,78.87,0,0,1-9.4,16.27A70.67,70.67,0,0,0,85.89,377.6Zm14.39,3.56a68.6,68.6,0,0,1-8.67,8.16c-1.09.89-2,1.51-2.58,1.94l-.91.65.8-.79c.52-.52,1.3-1.26,2.24-2.29a83.39,83.39,0,0,0,7.46-9,85.34,85.34,0,0,0,14.72-34.77,210.11,210.11,0,0,0,2.57-21c.55-6.54,1-12.48,1.63-17.45s1.3-9,1.85-11.71,1-4.24,1-4.24-.11,1.54-.32,4.32-.34,6.8-.39,11.77,0,10.89-.16,17.5a135,135,0,0,1-2,21.59,79.87,79.87,0,0,1-2.88,11,72.52,72.52,0,0,1-14.36,24.34Zm10.92,5.55c-1,1.19-1.83,2-2.4,2.61l-.87.88.73-1c.48-.65,1.2-1.59,2-2.89a65.22,65.22,0,0,0,5.89-11.42,97,97,0,0,0,5.16-18.23,231.73,231.73,0,0,0,2.89-23.17c.73-8.31,1.42-16.3,2.54-23.54a113.31,113.31,0,0,1,4.42-19,33.64,33.64,0,0,1,6.31-11.57,20.83,20.83,0,0,1,2.57-2.47l1-.74-.87.87a22.18,22.18,0,0,0-2.18,2.75,35.23,35.23,0,0,0-4.79,11.76,145,145,0,0,0-2.9,18.83c-.71,7.16-1.12,15.09-1.86,23.47a154.06,154.06,0,0,1-3.62,23.56,82.56,82.56,0,0,1-6.74,18.35A56.79,56.79,0,0,1,111.2,386.71Zm14.09,16.34c-.85,1.48-1.58,2.58-2.05,3.34s-.74,1.15-.74,1.15l.58-1.24c.37-.81,1-2,1.62-3.56,1.39-3.09,3.3-7.61,5.29-13.31a172.7,172.7,0,0,0,9.3-45.83c.66-9.15,1-18,1.69-26a121.16,121.16,0,0,1,3.59-21.23,68.2,68.2,0,0,1,5.25-13.52c.78-1.52,1.53-2.63,2-3.4l.71-1.17-.55,1.25c-.33.83-.93,2-1.52,3.59a78.55,78.55,0,0,0-3.79,13.72,152.58,152.58,0,0,0-2.08,21c-.33,8-.36,16.79-1,26.12a134,134,0,0,1-4.33,26A134.37,134.37,0,0,1,132,390.22,123.73,123.73,0,0,1,125.29,403.05Zm12.77,12.18a20.49,20.49,0,0,1-1.61,1.92l-1.24,1.36-1,1.11s.3-.43.88-1.23c.29-.4.64-.9,1.07-1.48a23.81,23.81,0,0,0,1.39-2.07,71.08,71.08,0,0,0,7-14.1,103.09,103.09,0,0,0,5.36-22.59,210,210,0,0,0,1.47-28.52c-.11-10.19-.41-20-.29-28.9a180.33,180.33,0,0,1,1.63-23.7,103.92,103.92,0,0,1,3.41-15.64c.5-1.82,1.06-3.18,1.37-4.12l.5-1.42-.33,1.47c-.19,1-.59,2.38-.9,4.23a124.07,124.07,0,0,0-1.93,15.7c-.46,6.66-.45,14.61-.16,23.45s.85,18.58,1,28.89a161.16,161.16,0,0,1-2.17,29.11,92.71,92.71,0,0,1-6.95,22.86A63.93,63.93,0,0,1,138.06,415.23Zm17.63-2.92a69.36,69.36,0,0,1-5.42,8.74c-.83,1.2-1.69,2.21-2.42,3.11s-1.38,1.65-1.94,2.24l-1.72,1.84,1.18-2.22c.39-.71.86-1.57,1.36-2.6s1.13-2.16,1.71-3.46c1.25-2.57,2.59-5.68,4-9.14s2.71-7.33,4-11.43,2.23-8.07,3-11.71,1.39-7,1.78-9.81c.24-1.41.35-2.69.5-3.83s.25-2.11.32-2.91l.25-2.51s.15.89.41,2.49c.13.81.27,1.79.37,2.94s.25,2.47.27,3.93a69.09,69.09,0,0,1-.35,10.27,67.68,67.68,0,0,1-7.31,24.06Zm22.86-130.8c-2.4,3.08-4.42,8.47-5.19,15.38a149.66,149.66,0,0,0-.54,24.56c.47,9.27,1.6,19.44,2.55,30.21.46,5.39.84,10.68,1,15.82s.08,10.1-.23,14.83a99.39,99.39,0,0,1-4.5,24.72,66.7,66.7,0,0,1-7.1,15.31,41.81,41.81,0,0,1-2.59,3.77l-.94,1.28.79-1.38c.51-.9,1.32-2.2,2.16-4a72.52,72.52,0,0,0,5.64-15.58,111,111,0,0,0,2.95-24.29A263.59,263.59,0,0,0,171.13,352c-.94-10.72-1.82-21-1.9-30.47a127.56,127.56,0,0,1,2-25,42.94,42.94,0,0,1,2.83-9.3,22.5,22.5,0,0,1,3.95-6.18,16,16,0,0,1,3.56-2.91c.92-.51,1.42-.74,1.42-.74s-.47.29-1.32.89A16.26,16.26,0,0,0,178.55,281.51Zm17.68,100.42A83,83,0,0,1,192,397.45c-1.72,4.76-3.49,9.16-4.88,13.34a62.86,62.86,0,0,0-2.92,11.81c-1,7.38-.06,13.52,1.49,17.41a24.48,24.48,0,0,0,2.16,4.33l1,1.42-1.1-1.31a23,23,0,0,1-2.61-4.18c-2-3.82-3.56-10.12-3-17.88A61.42,61.42,0,0,1,184.34,410c1.18-4.37,2.75-8.91,4.26-13.65a87.74,87.74,0,0,0,3.6-14.95,84.45,84.45,0,0,0,.4-16.44c-.78-11.35-3-22.13-4.71-32.05s-2.84-19-2.78-26.72a66.2,66.2,0,0,1,2.36-18c.63-2,1.14-3.61,1.59-4.65l.62-1.58s-.15.56-.45,1.64-.69,2.68-1.12,4.75a70.83,70.83,0,0,0-.87,17.74c.47,7.51,2.07,16.33,4.17,26.12s4.62,20.63,5.44,32.44A80.09,80.09,0,0,1,196.23,381.93Zm10.38,12.38c-1.09,9.56-3.41,17.83-4.8,24.78A74.26,74.26,0,0,0,200,435.75c0,1,.08,1.87.13,2.64a19,19,0,0,0,.2,1.93l.2,1.6-.38-1.57a17.53,17.53,0,0,1-.41-1.91c-.13-.76-.3-1.64-.4-2.64a68.64,68.64,0,0,1,.42-17.06c.89-7.16,2.67-15.48,3.32-24.77a201.14,201.14,0,0,0-.39-30.39c-.85-10.79-2.14-21.08-3.19-30.47s-1.93-17.9-2.36-25.06-.51-13-.44-17,.2-6.22.2-6.22.17,2.21.46,6.2.94,9.73,1.9,16.8,2.33,15.45,3.79,24.79,3,19.66,3.88,30.62A160.79,160.79,0,0,1,206.61,394.31ZM227,369.62a66.52,66.52,0,0,1-1.05,8.14,128.36,128.36,0,0,1-3.9,14.77c-1.46,4.6-2.91,8.91-4.09,13a98.83,98.83,0,0,0-2.68,11.41,50.29,50.29,0,0,0-.31,16.91,37.12,37.12,0,0,0,1.05,4.53l.49,1.56-.66-1.5a34.06,34.06,0,0,1-1.53-4.45,48.11,48.11,0,0,1-1.15-17.32,90.6,90.6,0,0,1,2-11.87c1-4.21,2.2-8.62,3.45-13.24,2.47-9.21,5.12-19.37,4-30s-4.48-20.61-7.68-29.6-6.24-17.22-8-24.35a72.72,72.72,0,0,1-2.33-17.17,22.81,22.81,0,0,1,.08-2.71c.06-.79.1-1.45.14-2,.07-1.06.11-1.62.11-1.62s0,.56.07,1.63c0,.53.05,1.19.08,2a20.86,20.86,0,0,0,.18,2.68A79.82,79.82,0,0,0,209,306.94c2.21,6.86,5.62,14.74,9.28,23.65s7.51,19.05,8.57,30.53c.2,1.41.12,2.85.19,4.27,0,.71,0,1.42,0,2.12S227,368.92,227,369.62Zm1.26-46.53c-1.14-3.27-2.45-6.85-3.73-10.69a101.63,101.63,0,0,1-3.08-11.12c-.33-1.76-.66-3.42-.82-5-.08-.8-.18-1.56-.24-2.3s-.06-1.46-.08-2.14a30.71,30.71,0,0,1,.07-3.66c0-.53.05-1,.1-1.49s.13-.87.19-1.24c.24-1.48.38-2.3.38-2.3l.28,2.3c0,.37.08.78.13,1.22s.17.93.26,1.45c.2,1,.35,2.19.7,3.46l.46,2c.2.69.4,1.4.61,2.14.38,1.48.93,3,1.43,4.67l3.64,10.69a112.6,112.6,0,0,1,3.15,11.07,56.25,56.25,0,0,1,1.35,9.41,30.44,30.44,0,0,1,.05,3.66,19.11,19.11,0,0,1-.18,2.74c-.19,1.49-.29,2.31-.29,2.31s-.14-.82-.38-2.29a24.9,24.9,0,0,0-.49-2.65c-.23-1-.43-2.18-.81-3.45C230.3,329.32,229.33,326.36,228.23,323.09ZM243.54,432l-.91-1.3c-.31-.49-.62-1-1-1.62a45.74,45.74,0,0,1-2.21-4.06l-1.17-2.43c-.38-.86-.73-1.77-1.11-2.7-.79-1.87-1.4-3.94-2.1-6.11a89.1,89.1,0,0,1-2.83-14.48,132.76,132.76,0,0,1,.14-26.58c.65-6.75,1.35-10.89,1.35-10.89s.37,4.19.77,10.93.9,16,2,26.07c.56,5,1.27,9.79,2.08,14.1.49,2.13.85,4.19,1.39,6.06.25.94.46,1.87.71,2.74s.53,1.7.77,2.49c.45,1.62,1,3,1.46,4.27.22.63.43,1.22.63,1.76l.61,1.44,1.13,2.72ZM258,423.42c-.5-.74-1.35-1.75-2.23-3.19a70.24,70.24,0,0,1-6.53-12.77,99.49,99.49,0,0,1-5.52-20.61,180.75,180.75,0,0,1-2.14-26c-.15-9.2,0-17.91-.05-25.8s-.34-15-.95-20.92a123.66,123.66,0,0,0-2.13-14c-.31-1.65-.68-2.9-.87-3.76l-.32-1.32.49,1.26c.3.83.84,2,1.34,3.64a99.48,99.48,0,0,1,3.6,13.86,163.47,163.47,0,0,1,2.43,21.1c.47,8,.57,16.72.72,25.84s.54,17.75,1.43,25.54a118,118,0,0,0,4,20.41,80.28,80.28,0,0,0,5.1,13.13c.7,1.53,1.4,2.62,1.8,3.42s.65,1.19.65,1.19Zm17.35-12.86-1.23-1.22c-.46-.5-1-1.1-1.56-1.77a52,52,0,0,1-7.91-12.87A80.74,80.74,0,0,1,258.83,373c-1.13-8.42-1.16-17.74-1-27.37s.47-18.72-.1-26.93-1.84-15.5-4.07-21.28a36.57,36.57,0,0,0-7.48-12.53,19.17,19.17,0,0,0-1.66-1.63,12.22,12.22,0,0,0-1.3-1.12l-1.11-.88,1.22.73a13.74,13.74,0,0,1,1.44,1,18,18,0,0,1,1.87,1.46,35.68,35.68,0,0,1,9,12.17c2.83,5.82,4.73,13.39,5.69,21.8s1,17.72.78,27.34-.43,18.71.27,26.9a89.48,89.48,0,0,0,4.19,21.34A55.66,55.66,0,0,0,273,407.17c.5.72.95,1.36,1.33,1.92l1.07,1.34.87,1.12ZM289,398.71a21.72,21.72,0,0,1-3.29-2.14A29.54,29.54,0,0,1,277,385a42.68,42.68,0,0,1-2.94-9.72,66.67,66.67,0,0,1-.9-11.56c0-8.14,1.11-16.86,1-25.87a136.88,136.88,0,0,0-2.53-25.38,90.12,90.12,0,0,0-6-19.93,39.6,39.6,0,0,0-7.8-11.63c-.58-.6-1.13-1.1-1.62-1.52a16.06,16.06,0,0,0-1.27-1l-1.08-.83,1.18.68a12.11,12.11,0,0,1,1.4.88,18.14,18.14,0,0,1,1.83,1.34,37.72,37.72,0,0,1,9.25,11.14,80,80,0,0,1,7.61,20.12,110.78,110.78,0,0,1,3.28,26.14c.08,9.44-1.33,18.16-1.69,26a71.8,71.8,0,0,0,.19,11.06,43.48,43.48,0,0,0,2,9.35,30,30,0,0,0,7.15,11.88,23.42,23.42,0,0,0,2.95,2.49l1.11.77Zm17.61-3.38a15.42,15.42,0,0,1-3-1.15,20.68,20.68,0,0,1-8.42-8.55,36.13,36.13,0,0,1-3.07-7.8c-.8-2.89-1.39-6-2-9.22-1.21-6.45-2.45-13.55-3.63-21-4.68-29.92-6.37-54.5-6.37-54.5S286,317,290.69,346.92c1.17,7.48,2.15,14.63,3,21.14s1.53,12.23,3.44,16.64a20.53,20.53,0,0,0,6.84,8.91,15.28,15.28,0,0,0,2.75,1.54l1,.41Zm11.31-18.58a23.13,23.13,0,0,1-2.72-2.09,30.65,30.65,0,0,1-7.35-10.32c-2.31-4.92-3.74-11.29-4.64-18.24-.48-3.48-.87-7.1-1.42-10.8s-1.18-7.52-1.95-11.42a216.77,216.77,0,0,0-11.59-39c-2-4.79-4.31-8.31-6.49-10.24a15.69,15.69,0,0,0-2.69-2l-1.06-.54,1.13.37a15.22,15.22,0,0,1,3,1.62c2.52,1.68,5.46,5.1,8,9.84A144,144,0,0,1,304,323.05c.79,4,1.39,7.92,1.82,11.73s.67,7.49.94,10.93c.51,6.89,1.36,13,3,17.84a32,32,0,0,0,5.86,10.64,24,24,0,0,0,2.35,2.41l.9.77Zm19.61-15.82a10.47,10.47,0,0,1-3.18-.16,15.62,15.62,0,0,1-9.55-6.81,31.53,31.53,0,0,1-3.56-7.42c-1-2.77-1.74-5.71-2.61-8.81-1.69-6.21-3.34-13.06-5.14-20.19s-3.61-13.85-5.63-19.85a109.6,109.6,0,0,0-6.36-15.53c-.49-1.1-1.1-2.06-1.61-3s-1-1.86-1.52-2.65c-1-1.6-1.86-3-2.66-4.13l-2.47-3.42,3,3c1,1,2,2.3,3.26,3.78.64.73,1.2,1.61,1.87,2.49s1.37,1.83,2,2.89a86.88,86.88,0,0,1,7.89,15.35,153.51,153.51,0,0,1,6.39,20.05c1.82,7.22,3.2,14.13,4.5,20.39s2.28,11.89,4.5,16a15,15,0,0,0,7.91,7.27,10.47,10.47,0,0,0,3,.62c.71,0,1.09,0,1.09,0S338.26,360.84,337.55,360.93Zm8.67-23.85a11.71,11.71,0,0,1-2.7-.45,17.31,17.31,0,0,1-8.43-5.69c-2.91-3.36-4.95-8.3-6.5-13.66s-3.19-11-5.39-16.94c-4.37-11.78-9.3-22.11-14.46-28.49a41.93,41.93,0,0,0-6.82-6.94c-.91-.73-1.65-1.26-2.16-1.6l-.78-.53.87.37a25.19,25.19,0,0,1,2.44,1.21,36.59,36.59,0,0,1,8,6.07,57.31,57.31,0,0,1,9.1,11.92,103.78,103.78,0,0,1,7.77,16.52,117.8,117.8,0,0,1,4.88,17.51c1.13,5.34,2.51,10,4.72,13.28a17.22,17.22,0,0,0,7,6.35,13.08,13.08,0,0,0,2.5.89l.92.18Zm6.49-17.78a7.45,7.45,0,0,1-1.62-.16,11.57,11.57,0,0,1-5.35-3,30.17,30.17,0,0,1-5.39-7.15c-1.64-2.8-3.37-5.92-5.06-9.26A175.35,175.35,0,0,1,325,274.64a174.07,174.07,0,0,1,14.13,23.21c1.69,3.34,3.18,6.58,4.46,9.56a41.6,41.6,0,0,0,3.78,7.36,11.88,11.88,0,0,0,4,3.75,7.8,7.8,0,0,0,1.43.6l.53.18Zm1.16-25.77a7.58,7.58,0,0,1-1.71.22,11.59,11.59,0,0,1-6.25-1.78,22,22,0,0,1-6.74-6.92l-6-9.36c-2.15-3.28-4.23-6.38-6.17-9.18s-3.7-5.37-5.3-7.27a14.2,14.2,0,0,0-4.51-3.78,8.86,8.86,0,0,0-1.55-.57l-.58-.14.6,0a7.89,7.89,0,0,1,1.73.12,13.38,13.38,0,0,1,5.78,2.87,56.27,56.27,0,0,1,6.65,6.6,81.27,81.27,0,0,1,6.91,9.06,95.28,95.28,0,0,1,5.55,9.85,25,25,0,0,0,4.93,7.05,11.68,11.68,0,0,0,5.05,2.83,9,9,0,0,0,1.64.26l.59,0Z"/><path class="cls-1" d="M171.36,41a23,23,0,0,1-1.8-3.06C145.37,58.5,127.4,82.89,127.4,82.89c-6.56-5.51-9.43-5.83-9.43-5.83l51.5-39.3a11.84,11.84,0,0,1-1.36-4.8c-8.68,6.43-31.61,23.49-44.37,33.82-16,12.91-113.82,94.9-113.82,94.9S9,185.56,35.7,192.6c0,0,91.45-71.7,98.44-82.08S132,84.28,132,84.28l49.16-34.21C176.91,47.08,173.46,44.07,171.36,41Zm-47.68,75.66c-2.44,2-5.88,5-10.07,8.39s-9.06,7.49-14.34,11.74L82.73,150.13,66.06,163.29c-5.31,4.21-10.34,8.05-14.62,11.38s-7.91,6-10.42,8l-4,3,3.79-3.21c2.44-2,5.88-5,10.07-8.39s9.06-7.48,14.34-11.73L81.79,149l16.66-13.16c5.32-4.21,10.35-8,14.63-11.38s7.9-6,10.41-8l4-3ZM95,131.69s.36-.37,1-1,1.54-1.49,2.67-2.49c2.23-2,5.29-4.61,8.42-7.11s6.36-4.89,8.83-6.62c1.23-.87,2.29-1.54,3-2s1.17-.74,1.17-.74-.35.37-1,1-1.54,1.49-2.67,2.49c-2.23,2-5.29,4.61-8.42,7.11s-6.36,4.89-8.83,6.61c-1.23.87-2.29,1.55-3,2S95,131.69,95,131.69Zm34.71-24.94c0,1,0,1.59,0,1.59s-.05-.55-.16-1.59a36.06,36.06,0,0,0-.61-4.5c-.09-.48-.18-1-.28-1.53s-.3-1.07-.46-1.64-.3-1.17-.52-1.78-.48-1.21-.74-1.85a20,20,0,0,0-5.26-7.34,15.28,15.28,0,0,0-4.42-2.54,10.93,10.93,0,0,0-1.27-.38,1.41,1.41,0,0,0-.3-.07l-.12,0-.27,0-.2.2-.12.11-.29.26-1.15,1-10,8.79c-7.06,6.17-14.88,12.87-23.19,19.8C47.14,143,18.77,163.7,18.77,163.7s25.49-24.19,58.71-51.89c8.3-6.93,16.3-13.42,23.64-19.26l10.44-8.24,1.23-1,.76-.61a12.06,12.06,0,0,1,1-.71c.41.07.81.12,1.2.2l.6.15c.17,0,.28.07.42.12a15,15,0,0,1,1.5.58,17.27,17.27,0,0,1,4.94,3.35A21.08,21.08,0,0,1,128.28,95l.58,2c.17.64.25,1.28.36,1.89s.22,1.17.3,1.73.08,1.08.12,1.58A34.78,34.78,0,0,1,129.75,106.75Z"/><path class="cls-1" d="M234.68,9.08c2.69-6.16-4.58-11.77-6.41-7.69,0,0-4.49,15.54-28.08,25.27,3.18.87,6.51,1.92,10,3.18C219,23.55,232.86,13.23,234.68,9.08Z"/><path class="cls-1" d="M369.84,133.65C341.45,105.05,260.6,48,210.19,29.84c-1.71,1.22-3.23,2.29-4.43,3.13a97.85,97.85,0,0,1,8.93,4.51l-19.23,16a98.54,98.54,0,0,1-10.41-6.15l-3.9,2.71c14.71,10.39,39.57,20.56,56.37,31.6,21.64,14.22,98.77,69.2,127.53,99s36.25,11.81,37.79,6.62S406.49,170.56,369.84,133.65Zm-15.73,28.07-6.56-6.05c-2.57-2.34-5.64-4.86-8.94-7.73a677.93,677.93,0,0,0-54.21-41.49c-21.88-15.25-42.5-27.87-57.61-36.72-7.55-4.41-13.74-7.87-18-10.21s-6.71-3.6-6.71-3.6,2.5,1,6.94,3.13,10.85,5.15,18.63,9.2a547.69,547.69,0,0,1,58.71,35.43,461.41,461.41,0,0,1,53.42,43c3.17,3,6.1,5.71,8.54,8.2l6.2,6.45,5.25,5.51Zm40.43,28.9c-8.94,6.66-29-16.84-29-16.84l6.59-29.62C392.87,166,403.48,184,394.54,190.62Z"/><path class="cls-1" d="M174.34,30.63a4.7,4.7,0,0,1,.92-1.34c5-3,12.17-2.37,19.07-.48,2.08-.68,4-1.39,5.86-2.15-10.13-2.76-18.54-3.45-24.22-1.22,0,0-8,1.11-7.86,7.52l3.5-2.58Z"/><path class="cls-1" d="M174.34,30.63l-2.73-.25L168.11,33a11.84,11.84,0,0,0,1.36,4.8l3.87-3c-1.28,1-2.53,2.1-3.78,3.16a23,23,0,0,0,1.8,3.06c2.1,3,5.55,6.06,9.79,9l3.9-2.71C172.63,38.81,173.17,33.07,174.34,30.63Z"/><path class="cls-1" d="M205.76,33c1.2-.84,2.72-1.91,4.43-3.13-3.49-1.26-6.82-2.31-10-3.18-1.83.76-3.78,1.47-5.86,2.15A81.63,81.63,0,0,1,205.76,33Z"/><path class="cls-1" d="M173.34,34.8l-3.87,3a1.76,1.76,0,0,0,.09.2C170.81,36.9,172.06,35.84,173.34,34.8Z"/><path class="cls-1" d="M191.94,47.86a29,29,0,0,0,3.95.69s-1.26-.92-3.26-2.23c-.89-.62-1.92-1.34-3-2.14L187,46A25.45,25.45,0,0,0,191.94,47.86Z"/><path class="cls-1" d="M177.75,32a11.31,11.31,0,0,0,.18,3,14.52,14.52,0,0,0,1.66,4.23,16.59,16.59,0,0,0,3.61,4.2A20,20,0,0,0,187,46l2.57-1.79c-1.34-1-2.78-2.06-4.22-3.28a27.06,27.06,0,0,1-5.88-6.45A16.92,16.92,0,0,1,178.28,32a10,10,0,0,1-.32-1h0A5.43,5.43,0,0,0,177.75,32Z"/><path class="cls-1" d="M385.29,170.62c2.73,4.45,4.92,8.67,5,11.91a6.08,6.08,0,0,1-1.74,4.53l-.27.3.36-.19a5.07,5.07,0,0,0,1-.62,6.23,6.23,0,0,0,2.33-3.84,14.15,14.15,0,0,0-.51-6.66,30.88,30.88,0,0,0-3.29-7.19,52.88,52.88,0,0,0-9-10.79,46.76,46.76,0,0,0-4.46-3.72s1.23,1.86,3.17,4.82S382.55,166.15,385.29,170.62Z"/><path class="cls-1" d="M146.26,199.61h4.43v37.64h-4.43V219h-6v18.24H135.8V199.61h4.43v15.78h6Z"/><path class="cls-1" d="M160.89,199.61h5.32l6.23,37.64h-4.17l-1.07-7.18h-6.82l-1,7.18h-4.21Zm0,26.86h5.77l-3-19.89h-.07Z"/><path class="cls-1" d="M177.27,199.61h4.43v37.64h-4.43Z"/><path class="cls-1" d="M188.2,199.61h7.9q3.36,0,4.83,1.39c1,.93,1.58,2.5,1.78,4.73q.12,1.36.12,4.26a13.73,13.73,0,0,1-.75,4.87,4,4,0,0,1-2.69,2.55,2.9,2.9,0,0,1,2.14,1.48,10.73,10.73,0,0,1,1,4,80.61,80.61,0,0,1,.3,8.11c0,3.58.11,5.68.34,6.27h-4.41q-.34-.67-.34-12.68c0-2.69-.26-4.26-.79-4.69a3.7,3.7,0,0,0-2.4-.66l-2.63-.15v18.18H188.2Zm10.25,9.22c0-2.9-.26-4.57-.78-5a3.3,3.3,0,0,0-2.26-.68h-2.78v12.7h2.82a3,3,0,0,0,1.89-.49,3.14,3.14,0,0,0,.85-1.88,26.62,26.62,0,0,0,.26-4.37Z"/><path class="cls-1" d="M208.16,210.48a20.45,20.45,0,0,1,.71-6.29,9,9,0,0,1,1.54-3,6.78,6.78,0,0,1,5.3-2.07c3.25,0,5.35,1.45,6.29,4.3a21.49,21.49,0,0,1,.81,6.54v4.17h-4.34V210a19.22,19.22,0,0,0-.4-4.89,3.28,3.28,0,0,0-.95-1.68,2.27,2.27,0,0,0-1.41-.42,2.45,2.45,0,0,0-2.45,1.68,15.23,15.23,0,0,0-.67,5.29v16.3a20,20,0,0,0,.61,6,2.32,2.32,0,0,0,2.35,1.7,2.28,2.28,0,0,0,2.33-1.71,20.91,20.91,0,0,0,.59-6v-4.17h4.39v4.12c0,4-.54,6.86-1.62,8.72s-3,2.79-5.64,2.79-4.59-1-5.73-2.87-1.71-4.81-1.71-8.68Z"/><path class="cls-1" d="M238.47,199.61h4.4v28q0,5.28-1.65,7.7c-1.11,1.61-3,2.41-5.75,2.41s-4.65-.8-5.77-2.41-1.69-4.18-1.69-7.7v-28h4.43v27.87a17.4,17.4,0,0,0,.31,4.5,4.64,4.64,0,0,0,.65,1.17,2.41,2.41,0,0,0,2.07.81,2.62,2.62,0,0,0,2.19-.9,4.47,4.47,0,0,0,.75-2.67c0-1.19.06-2.15.06-2.89Z"/><path class="cls-1" d="M246.34,199.61h12.43v3.68H254.9v34h-4.41v-34h-4.15Z"/><path class="cls-1" d="M262,211.27a11.75,11.75,0,0,1-.39-3.23,12.15,12.15,0,0,1,1.51-6.49q1.51-2.42,5.77-2.41,5.47,0,6.46,5.26a32.14,32.14,0,0,1,.42,5.71v2.23h-4.23v-2.53a20.84,20.84,0,0,0-.36-4.83,3.28,3.28,0,0,0-.9-1.65,2.25,2.25,0,0,0-1.39-.41,2.49,2.49,0,0,0-2.31,1.18,9.08,9.08,0,0,0-.07,6.87,11.9,11.9,0,0,0,1.58,2l1.05,1.1,2.57,2.72a15.29,15.29,0,0,1,4.62,10.82c0,3.25-.5,5.74-1.51,7.45s-2.92,2.58-5.74,2.58q-5.12,0-6.48-4.49a22.54,22.54,0,0,1-.79-6.61v-3.87h4.3v3.83a19.05,19.05,0,0,0,.59,5.74A2.23,2.23,0,0,0,269,233.9a2.82,2.82,0,0,0,2.25-.76,4,4,0,0,0,.71-2.32c.07-1,.1-2.21.1-3.51a10.32,10.32,0,0,0-3.45-7.36l-2.45-2.46A15.42,15.42,0,0,1,262,211.27Z"/><path class="cls-1" d="M151.22,136.67a11.75,11.75,0,0,1-.39-3.23,12.06,12.06,0,0,1,1.51-6.49q1.5-2.42,5.76-2.41c3.65,0,5.81,1.75,6.46,5.26a31.19,31.19,0,0,1,.43,5.71v2.23h-4.23v-2.53a20.66,20.66,0,0,0-.37-4.83,3.13,3.13,0,0,0-.9-1.65,2.23,2.23,0,0,0-1.39-.41,2.49,2.49,0,0,0-2.31,1.18,6.93,6.93,0,0,0-.7,3.49,6.78,6.78,0,0,0,.64,3.38,11.42,11.42,0,0,0,1.58,2l1.05,1.1,2.57,2.72a15.29,15.29,0,0,1,4.62,10.82c0,3.25-.51,5.74-1.51,7.45s-2.92,2.58-5.75,2.58c-3.4,0-5.56-1.49-6.48-4.49A22.89,22.89,0,0,1,151,152v-3.87h4.3v3.83a18.64,18.64,0,0,0,.6,5.74,2.22,2.22,0,0,0,2.23,1.62,2.78,2.78,0,0,0,2.24-.76,4.11,4.11,0,0,0,.72-2.32q.09-1.56.09-3.51a10.31,10.31,0,0,0-3.44-7.36l-2.46-2.46A15.38,15.38,0,0,1,151.22,136.67Z"/><path class="cls-1" d="M180.75,125h4.43v37.64h-4.43V144.41h-6v18.24h-4.43V125h4.43v15.78h6Z"/><path class="cls-1" d="M195.39,125h5.32l6.22,37.64h-4.17l-1.07-7.18h-6.82l-1,7.18h-4.22Zm0,26.86h5.78l-3-19.89h-.06Z"/><path class="cls-1" d="M221.67,125h4.17l-5.71,37.64H215L208.71,125h4.22l2.5,15.94,2.14,14h.08l1.86-14Z"/><path class="cls-1" d="M230.21,125h11.25v3.68h-6.83v12.88h6.47v3.67h-6.47V159h6.91v3.67H230.21Z"/><path class="cls-1" d="M246.27,136.67a11.78,11.78,0,0,1-.38-3.23,12.15,12.15,0,0,1,1.5-6.49q1.52-2.42,5.77-2.41,5.47,0,6.46,5.26a32.1,32.1,0,0,1,.43,5.71v2.23h-4.24v-2.53a20.84,20.84,0,0,0-.36-4.83,3.2,3.2,0,0,0-.9-1.65,2.25,2.25,0,0,0-1.39-.41,2.49,2.49,0,0,0-2.31,1.18,9.08,9.08,0,0,0-.07,6.87,11.49,11.49,0,0,0,1.59,2l1,1.1,2.57,2.72a15.29,15.29,0,0,1,4.62,10.82c0,3.25-.5,5.74-1.51,7.45s-2.92,2.58-5.74,2.58c-3.41,0-5.57-1.49-6.48-4.49a22.54,22.54,0,0,1-.79-6.61v-3.87h4.3v3.83a18.64,18.64,0,0,0,.6,5.74,2.22,2.22,0,0,0,2.22,1.62,2.82,2.82,0,0,0,2.25-.76,4,4,0,0,0,.71-2.32c.07-1,.1-2.21.1-3.51a10.35,10.35,0,0,0-3.44-7.36l-2.46-2.46A15.42,15.42,0,0,1,246.27,136.67Z"/><path class="cls-1" d="M.42,389.47a1.88,1.88,0,0,1,.81-3l34-19.4a1.88,1.88,0,0,1,3,.81l9.55,16.74c3.92,6.88,3.23,11.51-2.28,14.66L43,400.74c-2.94,1.68-5.34,1.73-7.43.14,2.15,4.75.78,8.32-4.36,11.25l-4.83,2.76c-5.88,3.35-10.44,1.71-14.42-5.27ZM15,394.3l3.89,6.82c.78,1.36,1.82,1.6,3.23.79l2.05-1.16c1.42-.81,1.69-1.8.91-3.16l-3.89-6.83Zm14.27-8.15,2.54,4.46c.78,1.37,1.82,1.61,3.24.8l1.47-.84c1.42-.81,1.74-1.83,1-3.19l-2.54-4.46Z"/><path class="cls-1" d="M36.17,442.17,30,435.76a1.88,1.88,0,0,1,.06-3.08l11.53-11c1.75-1.67,4.43-3.23,8.61-5L63.79,411a2.84,2.84,0,0,1,3.57.84L78.59,423.6a2.81,2.81,0,0,1,.64,3.56L73,440.43c-1.92,4.11-3.61,6.72-5.35,8.38l-11.53,11a1.87,1.87,0,0,1-3.07-.07l-6.31-6.59c-1.12-1.18-1.15-2.17,0-3.21l6.11-5.84-7.39-7.73-6.11,5.84A1.88,1.88,0,0,1,36.17,442.17Zm17.55-12.93,6.56,6.85,4.67-8.4c.32-.71.28-1.19,0-1.53l-1-1.1c-.34-.35-.81-.4-1.54-.12Z"/><path class="cls-1" d="M71.69,474.86a1.87,1.87,0,0,1-.69-3l20.75-33.2a1.87,1.87,0,0,1,3-.69l17.06,10.66c7.69,4.81,7.92,9.79,4.75,14.87l-1.47,2.35c-1.8,2.87-3.8,4.47-6.52,4.05,3.48,2.75,4.24,7,1.55,11.3l-6.79,10.86a1.87,1.87,0,0,1-3,.69l-7.94-5a1.89,1.89,0,0,1-.7-3l4.9-7.83c1-1.54.87-2.53-.57-3.42l-7.17-4.49-6.27,10a1.88,1.88,0,0,1-3,.7Zm22.93-15,3.84,2.41c1.79,1.12,2.89.38,3.76-1l1.09-1.74c.86-1.38,1-2.69-.76-3.81l-3.84-2.4Z"/><path class="cls-1" d="M121.58,502.34a1.87,1.87,0,0,1-1.41-2.73l11.9-37.29a1.88,1.88,0,0,1,2.74-1.41l18.36,5.86c7.53,2.41,10.16,6.29,8.23,12.33l-.88,2.77c-1,3.22-2.77,4.88-5.38,5.13,4.8,2,6.2,5.59,4.4,11.23l-1.69,5.3c-2.06,6.44-6.52,8.31-14.18,5.87Zm14-6.31,7.48,2.39c1.49.48,2.42-.05,2.92-1.6l.71-2.25c.5-1.55,0-2.46-1.46-2.94l-7.48-2.39Zm5-15.65,4.9,1.56c1.49.48,2.42-.05,2.92-1.6l.51-1.61c.5-1.56,0-2.53-1.45-3l-4.89-1.57Z"/><path class="cls-1" d="M175.65,516.25a1.88,1.88,0,0,1-2-2.32l2.8-39.07c.11-1.51.82-2.13,2.33-2l28,2a1.88,1.88,0,0,1,2,2.32l-.51,7.06c-.11,1.51-.82,2.12-2.33,2l-16.64-1.19-.33,4.64,11.76.85a1.88,1.88,0,0,1,2,2.32l-.46,6.45c-.11,1.51-.82,2.13-2.33,2l-11.75-.84-.38,5.18,16.65,1.19a1.88,1.88,0,0,1,2,2.33l-.5,7.05c-.11,1.51-.82,2.13-2.33,2Z"/><path class="cls-1" d="M227.31,517.37a1.88,1.88,0,0,1-2.5-1.8l-6.42-38.63a1.88,1.88,0,0,1,1.79-2.51L240,471.14c8.94-1.49,12.42,2.1,13.4,8l.46,2.74c.55,3.34.11,5.86-2.22,7.35,4.44-.25,7.82,2.44,8.65,7.45l2.1,12.64a1.87,1.87,0,0,1-1.79,2.5l-9.24,1.54a1.88,1.88,0,0,1-2.5-1.8l-1.52-9.12c-.29-1.79-1-2.46-2.69-2.19l-8.35,1.39,1.94,11.69a1.88,1.88,0,0,1-1.79,2.5Zm7.25-26.45,4.47-.74c2.09-.35,2.43-1.63,2.16-3.24l-.33-2c-.27-1.61-1-2.71-3.09-2.37l-4.47.75Z"/><path class="cls-1" d="M281.76,505.21a1.87,1.87,0,0,1-2.85-1.14l-2.79-6.5a1.87,1.87,0,0,1,1.15-2.85l14.94-6.4a1.58,1.58,0,0,0,.75-2.23c-.54-1.28-1.26-1.56-2.25-1.27l-8.83,2.4c-5.56,1.46-9.9.69-12.56-5.54l-2.5-5.83c-2.71-6.33.09-11.61,7.32-14.7l15.55-6.66a1.89,1.89,0,0,1,2.86,1.14l2.83,6.62a1.88,1.88,0,0,1-1.15,2.85l-12.94,5.54a1.61,1.61,0,0,0-.79,2.31,1.78,1.78,0,0,0,2.26,1.14l8.76-2.43c5.55-1.46,10-.72,12.61,5.51l2.5,5.83c2.71,6.33-.15,11.63-7.31,14.7Z"/><path class="cls-1" d="M329,482.16a1.88,1.88,0,0,1-3-.43l-23.55-31.26a1.87,1.87,0,0,1,.43-3l7.47-5.64a1.89,1.89,0,0,1,3.05.43l7.88,10.47,8.06-6.07-7.89-10.46a1.88,1.88,0,0,1,.43-3.05l7.47-5.63a1.88,1.88,0,0,1,3.05.43l23.55,31.25a1.88,1.88,0,0,1-.43,3L348,467.84a1.87,1.87,0,0,1-3-.43l-8.07-10.71-8,6.07,8.06,10.71a1.87,1.87,0,0,1-.42,3Z"/><path class="cls-1" d="M383.88,432.93c-9.44,11.78-15.61,11.57-21.36,7L346.44,427c-5.75-4.6-7.37-10.61,2.08-22.4s15.61-11.48,21.36-6.88L386,410.61C391.72,415.21,393.32,421.14,383.88,432.93Zm-9.11-7.29c2.76-3.44,2.24-4.72,1-5.74l-12.68-10.15c-1.23-1-2.59-1.22-5.34,2.22s-2.23,4.72-1,5.7l12.68,10.16C370.66,428.85,372.06,429,374.77,425.64Z"/><path class="cls-1" d="M406,398.65a1.88,1.88,0,0,1-2.89,1.07l-35.56-16.39a1.87,1.87,0,0,1-1.07-2.88l7.74-16.8c4.6-10,10.3-10.95,16.66-8l7,3.24c6.37,2.93,9.34,7.89,4.74,17.88l-2.91,6.31,9.11,4.2a1.87,1.87,0,0,1,1.07,2.88Zm-16.19-20,2.28-4.94c1-2.14-.08-3.16-1.51-3.82l-2.9-1.34c-1.43-.65-2.9-.8-3.88,1.34l-2.28,4.94Z"/><path class="cls-1" d="M211,183.38a19.6,19.6,0,0,0-2.33,4q2,4.35,2,4.53h-2.29c-.13-.32-.45-1-1-2.15a5.57,5.57,0,0,1-1.64,1.78,4.37,4.37,0,0,1-2.5.62,3.33,3.33,0,0,1-2.64-1.22,5.17,5.17,0,0,1-1.06-3.46,7.33,7.33,0,0,1,1-3.87,24.17,24.17,0,0,1,2.49-3.37q-1.92-4.59-1.92-6.18a4.6,4.6,0,0,1,1-3.19,3.64,3.64,0,0,1,2.87-1.09,3.21,3.21,0,0,1,2.72,1.08,4.83,4.83,0,0,1,.83,3,6.77,6.77,0,0,1-.83,3.42,26.37,26.37,0,0,1-2.13,3.12c.47,1.16,1.13,2.7,2,4.6a20.39,20.39,0,0,1,2.3-3.48Zm-4.62,4.14q-1.46-3.08-2.32-5.05a8.87,8.87,0,0,0-2.1,5.18c0,1.58.64,2.38,1.93,2.38a1.68,1.68,0,0,0,1.29-.62A8.89,8.89,0,0,0,206.42,187.52Zm-1.61-9.21a7.16,7.16,0,0,0,1.82-4.31,4,4,0,0,0-.29-1.8,1.15,1.15,0,0,0-1.12-.53,1.36,1.36,0,0,0-1.16.44,1.84,1.84,0,0,0-.38.91c0,.31-.05.65-.05,1A15,15,0,0,0,204.81,178.31Z"/></g></g></svg>